<svg xmlns="http://www.w3.org/2000/svg" viewBox="0 0 999 729.3"><defs><style>.cls-1{fill:#e50000;opacity:0.89;}.cls-1,.cls-10,.cls-13,.cls-15,.cls-3,.cls-5{isolation:isolate;}.cls-2{fill:#5f5d7e;}.cls-3{opacity:0.68;}.cls-4{fill:#38383a;}.cls-13,.cls-5{opacity:0.1;}.cls-6{fill:#0f0e0f;}.cls-7{fill:#ededf4;}.cls-8{fill:#e6e8ec;}.cls-9{fill:#474157;}.cls-10{opacity:0.76;}.cls-11{fill:#350202;}.cls-12{fill:#ffd037;}.cls-13{fill:#2271ff;}.cls-14{fill:#700;}.cls-16{fill:#fff;stroke:#c00;stroke-miterlimit:10;stroke-width:9px;}</style></defs><g id="_26e08365-e7f3-4f87-b2fd-e29738693ebb" data-name="26e08365-e7f3-4f87-b2fd-e29738693ebb"><path class="cls-1" d="M321.21,31.27C352,3.84,400.32-1.73,444.3.43,582.46,7.3,707.17,74,815,149.43c39.05,27.31,77.5,56.74,102.85,94.35,51.6,76.57,36.3,182.63-35.46,245.7C858,510.94,828.43,527.39,798,542c-54,25.93-112.31,46.74-173.62,52.67-43.73,4.22-88,.79-131.46-5.11C371.5,573.08,252.31,536.63,152.4,474.35,108.58,447,67.27,413.05,49.21,368.83s-6.5-100.2,38.29-126.4c18.51-10.82,40.64-15.71,62.3-20.3,31.89-6.76,64.29-13.42,93.06-27.15,29.72-14.19,64.92-41.63,59-73C295.5,88.26,290.5,58.63,321.21,31.27Z" transform="translate(0 -0.01)"/><circle class="cls-1" cx="174.08" cy="129.39" r="31.5"/><circle class="cls-1" cx="108.09" cy="54.39" r="19.5"/><circle class="cls-1" cx="925.57" cy="114.39" r="12"/><polygon class="cls-2" points="214 487.3 213.63 507.25 210.67 668.96 185.33 728.3 98 729.3 98 496.49 189.14 489.27 214 487.3"/><polygon class="cls-3" points="214 487.3 213.63 507.25 210.67 668.96 185.33 728.3 98 729.3 98 496.49 189.14 489.27 214 487.3"/><polygon class="cls-4" points="214 487.3 213.63 507.25 210.67 668.96 185.33 728.3 192 507.63 191.98 507.49 189.14 489.27 214 487.3"/><polygon class="cls-5" points="189.14 489.27 214 487.3 213.63 507.25 191.98 507.49 98 508.54 98 496.49 189.14 489.27"/><polygon class="cls-4" points="999 496.49 999 727.96 978.67 727.96 897.33 668.63 897.33 489.96 970 483.13 974.46 485.18 978.67 487.12 999 496.49"/><rect class="cls-3" x="978.67" y="485.18" width="20.33" height="242.78"/><polygon class="cls-5" points="999 485.18 999 498.49 978.67 498.72 897.33 499.62 897.33 489.96 970 483.13 974.46 485.18 978.67 487.12 978.67 485.18 999 485.18"/><polygon class="cls-4" points="999 477.63 999 496.49 0 507.63 0 483.63 94 464.63 912 458.63 999 477.63"/><polygon class="cls-3" points="999 477.63 999 496.49 0 507.63 0 483.63 999 477.63"/><rect class="cls-6" x="365.5" y="194.96" width="349.92" height="271.69" rx="22.82"/><rect class="cls-7" x="393.66" y="219.47" width="294.12" height="221.63"/><circle class="cls-8" cx="382.18" cy="330.28" r="4.82"/><circle class="cls-8" cx="700.81" cy="330.8" r="7.95"/><path class="cls-5" d="M699.19,281.11l-3.72.79a24.58,24.58,0,0,1,3.14-.93Z" transform="translate(0 -0.01)"/><path class="cls-5" d="M767.5,469.35a3.4,3.4,0,0,1-.64-.09A1.39,1.39,0,0,1,767.5,469.35Z" transform="translate(0 -0.01)"/><ellipse class="cls-5" cx="170.24" cy="470.7" rx="45.04" ry="2.89"/><rect class="cls-9" x="151.97" y="458.43" width="41.74" height="11.52"/><rect class="cls-9" x="145.34" y="420.99" width="54.54" height="40.2"/><rect class="cls-10" x="151.26" y="458.43" width="39.76" height="11.52"/><rect class="cls-10" x="145.16" y="421" width="51.94" height="40.2"/><rect class="cls-11" x="154.25" y="458.43" width="39.76" height="11.52"/><rect class="cls-5" x="153.18" y="458.43" width="43.81" height="4.21"/><rect class="cls-11" x="147.94" y="420.99" width="51.94" height="40.2"/><path class="cls-1" d="M311.89,574.63S319,584,308.6,598s-19,26-15.56,34.76c0,0,15.74-26.16,28.55-26.52S326,590.37,311.89,574.63Z" transform="translate(0 -0.01)"/><path class="cls-5" d="M311.89,574.63a11.74,11.74,0,0,1,1.46,2.92c12.49,14.68,19.15,28.38,7.14,28.73-11.19.35-24.61,20.35-27.83,25.35.11.39.24.78.38,1.15,0,0,15.74-26.16,28.55-26.52S326,590.37,311.89,574.63Z" transform="translate(0 -0.01)"/><path class="cls-12" d="M325.15,586.53c0,3.28-.37,5.94-.82,5.94s-.82-2.66-.82-5.94.46-1.74.91-1.74S325.15,583.24,325.15,586.53Z" transform="translate(0 -0.01)"/><path class="cls-12" d="M329.7,590.45c-2.88,1.57-5.39,2.52-5.61,2.12s1.94-2,4.83-3.57,1.74-.43,2,0S332.59,588.88,329.7,590.45Z" transform="translate(0 -0.01)"/><path class="cls-1" d="M274.2,574.63S267.07,584,277.49,598s19,26,15.55,34.76c0,0-15.73-26.16-28.54-26.52S260.11,590.37,274.2,574.63Z" transform="translate(0 -0.01)"/><path class="cls-5" d="M274.2,574.63a11.74,11.74,0,0,0-1.46,2.92c-12.49,14.68-19.15,28.38-7.14,28.73,11.19.35,24.61,20.35,27.83,25.35a12,12,0,0,1-.39,1.15s-15.73-26.15-28.54-26.49S260.11,590.37,274.2,574.63Z" transform="translate(0 -0.01)"/><path class="cls-12" d="M260.94,586.53c0,3.28.37,5.94.82,5.94s.82-2.66.82-5.94-.46-1.74-.91-1.74S260.94,583.24,260.94,586.53Z" transform="translate(0 -0.01)"/><path class="cls-12" d="M256.39,590.45c2.88,1.57,5.39,2.52,5.61,2.12s-1.94-2-4.83-3.57-1.74-.43-2,0S253.5,588.88,256.39,590.45Z" transform="translate(0 -0.01)"/><ellipse class="cls-13" cx="293.04" cy="692.73" rx="74.6" ry="11.45"/><path class="cls-11" d="M331.44,620.24l-.36,2.91-.5,4.12-.2,1.71-.51,4.12-.21,1.72-.5,4.11-5.66,46.8c-.51,4.18-7.34,7.43-15.57,7.43H278.21c-8.24,0-15-3.25-15.56-7.43l-5.72-46.8-.5-4.11-.21-1.72-.51-4.12-.2-1.71-.5-4.12-.36-2.91c-.29-2.36,3.4-4.36,8.07-4.36h60.66C328,615.88,331.73,617.88,331.44,620.24Z" transform="translate(0 -0.01)"/><polygon class="cls-14" points="331.08 623.14 330.58 627.25 255.51 627.25 255.01 623.14 331.08 623.14"/><polygon class="cls-14" points="330.38 628.97 329.88 633.09 256.22 633.09 255.71 628.97 330.38 628.97"/><polygon class="cls-14" points="329.66 634.8 329.16 638.92 256.93 638.92 256.43 634.8 329.66 634.8"/><rect class="cls-11" x="197.64" y="427.39" width="14.28" height="4.32"/><rect class="cls-11" x="208.56" y="428.35" width="3.36" height="22.2"/><rect class="cls-11" x="197.64" y="446.59" width="11.76" height="3.96"/></g><g id="Layer_3" data-name="Layer 3"><rect class="cls-15" x="207.48" y="431.65" width="1.92" height="14.94"/></g><g id="Layer_2" data-name="Layer 2"><circle class="cls-16" cx="542.1" cy="333.55" r="82.56"/><polygon points="526.37 344.4 526.37 344.4 526.37 344.4 526.37 344.4"/><path d="M528.46,315.91v35.3L559,333.56ZM535,327.3l10.84,6.26L535,339.82Z" transform="translate(0 -0.01)"/><path d="M591.65,290.15v6h-9.12v-6H576v14.24H508.26V290.15h-6.58v6h-9.12v-6H486V377h6.58v-8.5h9.12V377h6.58V362.73H576V377h6.58v-8.5h9.12V377h6.58V290.15ZM501.7,361.89h-9.14V352h9.12Zm0-16.44h-9.14V335.6h9.12Zm0-16.43h-9.14v-9.86h9.12Zm0-16.43h-9.14v-9.87h9.12ZM576,356.15H508.26V311H576Zm15.7,5.74h-9.14V352h9.12Zm0-16.44h-9.14V335.6h9.12Zm0-16.43h-9.14v-9.86h9.12Zm0-16.43h-9.14v-9.87h9.12Z" transform="translate(0 -0.01)"/></g></svg>